<svg width="24" height="24" viewBox="0 0 24 24" fill="currentColor" xmlns="http://www.w3.org/2000/svg"><path d="M6.54461 20.7273C6.54461 21.6363 6.22646 22.4091 5.59019 23.0455C4.9539 23.6818 4.18128 24 3.2723 24C2.36333 24 1.5907 23.6818 0.954422 23.0455C0.318141 22.4091 0 21.6363 0 20.7273C0 19.8182 0.318141 19.0454 0.954422 18.4091C1.5907 17.7728 2.36333 17.4545 3.2723 17.4545C4.18128 17.4545 4.9539 17.7728 5.59019 18.4091C6.22646 19.0454 6.54461 19.8182 6.54461 20.7273ZM15.2707 22.8239C15.2935 23.1421 15.1969 23.4148 14.981 23.642C14.7765 23.8807 14.5095 24 14.18 24H11.8791C11.5951 24 11.3508 23.9062 11.1463 23.7187C10.9418 23.5312 10.8281 23.2955 10.8054 23.0114C10.5554 20.409 9.50728 18.1846 7.66094 16.3381C5.81459 14.4915 3.59045 13.4432 0.988508 13.1932C0.704454 13.1705 0.46869 13.0568 0.281214 12.8523C0.0937379 12.6477 0 12.4034 0 12.1193V9.81818C0 9.48864 0.119303 9.22159 0.357908 9.01705C0.551065 8.82387 0.79535 8.72727 1.09077 8.72727H1.17598C2.99393 8.87501 4.73234 9.33239 6.39122 10.0994C8.05008 10.8665 9.5215 11.8977 10.8054 13.1932C12.1007 14.4773 13.1318 15.9489 13.8988 17.608C14.6657 19.267 15.123 21.0056 15.2707 22.8239ZM23.9969 22.858C24.0196 23.1648 23.9173 23.4319 23.6901 23.6591C23.4856 23.8863 23.2242 24 22.9062 24H20.469C20.1734 24 19.9207 23.9006 19.7105 23.7017C19.5003 23.5028 19.3895 23.2614 19.3781 22.9773C19.2417 20.5341 18.668 18.2131 17.6569 16.0142C16.6456 13.8153 15.3304 11.9063 13.7113 10.2869C12.0922 8.66761 10.1833 7.35227 7.98477 6.34091C5.78618 5.32955 3.46546 4.75001 1.0226 4.60227C0.73854 4.5909 0.497094 4.48011 0.298256 4.26989C0.099419 4.05967 0 3.81251 0 3.52841V1.09091C0 0.772728 0.113622 0.511363 0.340864 0.306818C0.545384 0.102273 0.79535 0 1.09077 0H1.1419C4.11879 0.147727 6.96785 0.829546 9.68909 2.04546C12.4103 3.26136 14.8276 4.93181 16.941 7.05682C19.0657 9.17046 20.7359 11.5881 21.9516 14.3097C23.1675 17.0313 23.8491 19.8806 23.9969 22.858Z" fill="currentColor"/></svg>