<svg width="256" height="256" viewBox="0 0 256 256" fill="none" xmlns="http://www.w3.org/2000/svg">
    <path fill-rule="evenodd" clip-rule="evenodd"
        d="M27 46.2876C27 38.1433 31.052 31.1486 36.7675 25.597C42.457 20.0705 50.2642 15.47 59.2455 11.7801C77.2466 4.38457 101.549 0 127.971 0C154.393 0 178.695 4.38457 196.696 11.7801C205.677 15.47 213.485 20.0705 219.174 25.597C224.89 31.1486 228.942 38.1433 228.942 46.2876V100.431C229.02 101.56 229.019 102.674 228.942 103.771V154.887C229.02 156.016 229.019 157.13 228.942 158.227V209.343C229.478 217.033 226.284 224.023 220.969 229.792C215.654 235.563 208.057 240.344 199.106 244.161C190.088 248.007 179.465 250.973 167.893 252.974C156.302 254.979 143.851 256 131.236 256C118.62 256 106.014 254.978 94.1215 252.981C82.2414 250.985 71.1964 248.036 61.6418 244.239C52.1395 240.462 43.9843 235.795 37.964 230.283C31.9466 224.774 27.6877 218.044 27.0297 210.35L27 210.003V46.2876ZM43.3736 46.2876C43.3736 43.9055 44.5142 40.8722 48.189 37.3028C51.8897 33.7082 57.6704 30.0948 65.4798 26.8864C81.0599 20.4855 103.149 16.3368 127.971 16.3368C152.792 16.3368 174.882 20.4855 190.462 26.8864C198.271 30.0948 204.052 33.7082 207.753 37.3028C211.427 40.8722 212.568 43.9055 212.568 46.2876C212.568 48.6697 211.427 51.7029 207.753 55.2724C204.052 58.867 198.271 62.4804 190.462 65.6888C174.882 72.0897 152.792 76.2384 127.971 76.2384C103.149 76.2384 81.0599 72.0897 65.4798 65.6888C57.6704 62.4804 51.8897 58.867 48.189 55.2724C44.5142 51.7029 43.3736 48.6697 43.3736 46.2876ZM212.568 72.3681V102.994C212.335 104.906 211.346 107.186 208.914 109.825C205.696 113.319 200.344 116.954 192.67 120.227C185.063 123.471 175.71 126.13 165.096 127.965C154.501 129.798 142.99 130.751 131.236 130.751C119.483 130.751 107.789 129.798 96.8399 127.959C85.8776 126.117 75.9847 123.442 67.7013 120.15C59.3656 116.837 53.132 113.086 49.0343 109.334C45.0972 105.73 43.6587 102.638 43.3736 100.332V72.3681C47.9838 75.5707 53.3628 78.3782 59.2455 80.7951C77.2466 88.1906 101.549 92.5752 127.971 92.5752C154.393 92.5752 178.695 88.1906 196.696 80.7951C202.579 78.3782 207.958 75.5707 212.568 72.3681ZM212.568 128.02V157.45C212.335 159.362 211.346 161.642 208.914 164.281C205.696 167.775 200.344 171.41 192.67 174.683C185.063 177.927 175.71 180.586 165.096 182.421C154.501 184.254 142.99 185.207 131.236 185.207C119.483 185.207 107.789 184.254 96.8399 182.415C85.8776 180.573 75.9847 177.898 67.7013 174.606C59.3656 171.292 53.132 167.542 49.0343 163.79C45.0972 160.186 43.6587 157.094 43.3736 154.788V125.708C48.5516 129.372 54.7415 132.584 61.6418 135.327C71.1964 139.124 82.2414 142.073 94.1215 144.069C106.014 146.066 118.62 147.088 131.236 147.088C143.851 147.088 156.302 146.067 167.893 144.062C179.465 142.061 190.088 139.095 199.106 135.249C204.06 133.136 208.6 130.728 212.568 128.02ZM61.6418 189.783C54.7415 187.04 48.5516 183.828 43.3736 180.164V209.244C43.6587 211.55 45.0972 214.642 49.0343 218.246C53.132 221.998 59.3656 225.748 67.7013 229.062C75.9847 232.354 85.8776 235.029 96.8399 236.871C107.789 238.71 119.483 239.663 131.236 239.663C142.99 239.663 154.501 238.71 165.096 236.877C175.71 235.042 185.063 232.383 192.67 229.139C200.344 225.866 205.696 222.231 208.914 218.737C212.045 215.339 212.785 212.537 212.598 210.35L212.568 210.003V182.476C208.6 185.184 204.06 187.592 199.106 189.705C190.088 193.551 179.465 196.517 167.893 198.518C156.302 200.523 143.851 201.544 131.236 201.544C118.62 201.544 106.014 200.522 94.1215 198.525C82.2414 196.529 71.1964 193.58 61.6418 189.783Z"
        fill="#DF6C20" />
</svg>