<svg width="128" height="128" viewBox="0 0 128 128" fill="none" xmlns="http://www.w3.org/2000/svg">
	<path fill-rule="evenodd" clip-rule="evenodd"
		d="M58.1371 5.65412C74.993 -5.0824 98.4399 -0.0937129 110.217 16.9329C115.944 24.8497 118.213 34.8271 116.376 44.5875C115.62 49.1424 113.891 53.4804 111.298 57.3846C115.08 64.4338 116.268 72.5675 114.864 80.4843C113.243 89.9194 107.624 98.2701 99.5204 103.367L69.8066 122.346C52.9507 133.082 29.6118 128.094 17.7263 111.067C12.1077 103.15 9.83862 93.1729 11.5674 83.5209C12.3238 78.966 14.0526 74.6281 16.6458 70.7239C12.864 63.6746 11.6755 55.5409 13.0801 47.6241C14.7009 38.189 20.3195 29.8384 28.4233 24.7412L58.1371 5.65412ZM29.936 103.259C35.5546 111.392 45.6033 115.188 55.2197 112.694C57.3808 112.043 59.4337 111.176 61.2706 109.983L90.9844 91.0039C95.8467 87.9674 99.3043 82.8702 100.277 77.2308C101.249 71.3746 99.9526 65.4098 96.495 60.6381C90.8764 52.5043 80.8277 48.7086 71.2112 51.2029C69.0502 51.8536 66.9972 52.7212 65.1604 53.9142L53.8151 61.1803C53.2748 61.5057 52.6265 61.7226 51.9782 61.9395C49.0609 62.6986 46.0355 61.6141 44.3067 59.1198C43.3342 57.7099 42.902 55.8663 43.2262 54.1311C43.5503 52.3959 44.5228 50.986 46.0355 50.01L75.6413 31.0313C76.1815 30.706 76.8298 30.4891 77.4781 30.2722C80.3955 29.513 83.4209 30.5975 85.1497 33.0919C86.0141 34.3933 86.4463 36.02 86.3382 37.5383L86.2302 38.6228L87.3107 38.9481C91.5247 40.2495 95.4145 42.2016 98.9801 44.8044L100.493 45.8889L101.033 44.1537C101.357 43.1777 101.573 42.3101 101.789 41.334C102.762 35.4777 101.465 29.513 98.0077 24.7412C92.3891 16.6075 82.3404 12.8118 72.7239 15.3061C70.5629 15.9568 68.5099 16.8244 66.6731 18.0174L36.9592 36.996C32.097 40.0326 28.6394 45.1298 27.6669 50.7691C26.5864 56.6254 27.9911 62.5902 31.3406 67.3619C36.9592 75.4957 47.0079 79.2914 56.6244 76.7971C58.7854 76.2548 60.8384 75.3872 62.6752 74.1943L74.0205 66.9281C74.5608 66.6028 75.2091 66.3859 75.8574 66.169C78.7747 65.4098 81.8001 66.4943 83.5289 68.9887C84.5014 70.3985 84.9336 72.2422 84.6094 73.9774C84.2853 75.7126 83.3128 77.1224 81.8001 78.0984L52.1943 97.0771C51.6541 97.4025 51.0058 97.6194 50.3575 97.8363C47.4401 98.5954 44.4147 97.4025 42.6859 94.9081C41.8215 93.6067 41.3893 91.98 41.4974 90.4617L41.6054 89.3772L40.5249 89.0518C36.3109 87.7505 32.4211 85.7984 28.8555 83.1956L27.3428 82.1111L26.8025 83.8463C26.6945 84.3343 26.5864 84.7952 26.4784 85.2561C26.3703 85.717 26.2623 86.1779 26.1542 86.666C25.1818 92.5222 26.4784 98.487 29.936 103.259Z"
		fill="#FF3E00" />
	<path
		d="M55.2197 112.694C45.6033 115.188 35.5546 111.392 29.936 103.259C26.4784 98.487 25.1818 92.5222 26.1542 86.666C26.2623 86.1779 26.3703 85.717 26.4784 85.2561C26.5864 84.7952 26.6945 84.3343 26.8025 83.8463L27.3428 82.1111L28.8555 83.1956C32.4211 85.7984 36.3109 87.7505 40.5249 89.0518L41.6054 89.3772L41.4974 90.4617C41.3893 91.98 41.8215 93.6067 42.6859 94.9081C44.4147 97.4025 47.4401 98.5954 50.3575 97.8363C51.0058 97.6194 51.6541 97.4025 52.1943 97.0771L81.8001 78.0984C83.3128 77.1224 84.2853 75.7126 84.6094 73.9774C84.9336 72.2422 84.5014 70.3985 83.5289 68.9887C81.8001 66.4943 78.7747 65.4098 75.8574 66.169C75.2091 66.3859 74.5608 66.6028 74.0205 66.9281L62.6752 74.1943C60.8384 75.3872 58.7854 76.2548 56.6244 76.7971C47.0079 79.2914 36.9592 75.4957 31.3406 67.3619C27.9911 62.5902 26.5864 56.6254 27.6669 50.7691C28.6394 45.1298 32.097 40.0326 36.9592 36.996L66.6731 18.0174C68.5099 16.8244 70.5629 15.9568 72.7239 15.3061C82.3404 12.8118 92.3891 16.6075 98.0077 24.7412C101.465 29.513 102.762 35.4777 101.789 41.334C101.573 42.3101 101.357 43.1777 101.033 44.1537L100.493 45.8889L98.9801 44.8044C95.4145 42.2016 91.5247 40.2495 87.3107 38.9481L86.2302 38.6228L86.3382 37.5383C86.4463 36.02 86.0141 34.3933 85.1497 33.0919C83.4209 30.5975 80.3955 29.513 77.4781 30.2722C76.8298 30.4891 76.1815 30.706 75.6413 31.0313L46.0355 50.01C44.5228 50.986 43.5503 52.3959 43.2262 54.1311C42.902 55.8663 43.3342 57.7099 44.3067 59.1198C46.0355 61.6141 49.0609 62.6986 51.9782 61.9395C52.6265 61.7226 53.2748 61.5057 53.8151 61.1803L65.1604 53.9142C66.9972 52.7212 69.0502 51.8536 71.2112 51.2029C80.8277 48.7086 90.8764 52.5043 96.495 60.6381C99.9526 65.4098 101.249 71.3746 100.277 77.2308C99.3043 82.8702 95.8467 87.9674 90.9844 91.0039L61.2706 109.983C59.4337 111.176 57.3808 112.043 55.2197 112.694Z"
		fill="white" />
</svg>